<?xml version="1.0" encoding="UTF-8" standalone="no"?>
<!DOCTYPE svg PUBLIC "-//W3C//DTD SVG 20010904//EN"
              "http://www.w3.org/TR/2001/REC-SVG-20010904/DTD/svg10.dtd">

<svg xmlns="http://www.w3.org/2000/svg"
     width="5.875in" height="5.875in"
     viewBox="0 0 423 423">
  <path id="Selection #2"
        fill="none" stroke="black" stroke-width="1"
        d="M 76.91,291.04
           C 59.74,288.35 61.84,278.02 62.00,264.00
             62.05,260.27 62.46,254.26 64.73,251.21
             67.40,247.63 72.64,245.55 76.87,244.78
             76.87,244.78 76.91,291.04 76.91,291.04 Z
           M 352.04,244.96
           C 356.27,245.72 361.60,247.63 364.27,251.21
             366.89,254.73 366.99,261.72 367.00,266.00
             367.02,279.55 368.12,288.33 351.96,290.87
             351.96,290.87 352.04,244.96 352.04,244.96 Z
           M 115.00,324.00
           C 106.38,321.98 87.65,313.42 82.99,306.00
             78.09,298.19 79.00,291.68 79.00,283.00
             79.00,283.00 79.00,247.00 79.00,247.00
             79.01,240.35 79.46,235.87 83.05,230.00
             85.39,226.18 88.69,223.99 89.69,220.00
             89.69,220.00 92.16,197.00 92.16,197.00
             92.78,192.31 96.31,180.59 98.06,176.00
             103.67,161.35 115.03,143.15 126.09,132.09
             141.88,116.30 163.64,104.03 189.00,98.51
             214.36,93.00 228.82,97.10 239.00,98.32
             249.18,99.55 262.60,105.33 269.00,108.39
             279.09,113.23 296.26,125.03 303.83,133.04
             303.83,133.04 324.00,159.00 324.00,159.00
             324.79,149.48 321.40,147.16 321.04,138.00
             320.65,128.02 324.01,116.38 332.00,110.00
             333.38,111.49 334.40,112.78 336.18,113.87
             336.18,113.87 360.00,120.87 360.00,120.87
             364.28,121.95 368.55,123.54 373.00,123.50
             375.67,123.48 379.07,123.19 379.14,127.02
             379.14,127.02 375.00,137.00 375.00,137.00
             375.00,137.00 369.13,159.00 369.13,159.00
             368.59,161.13 366.96,166.53 367.12,168.42
             367.12,168.42 369.00,175.00 369.00,175.00
             359.55,177.69 347.16,175.26 339.00,169.89
             339.00,169.89 329.00,162.00 329.00,162.00
             328.56,163.86 327.84,166.10 328.01,168.00
             328.20,170.17 330.43,174.60 331.31,177.00
             331.31,177.00 336.33,194.00 336.33,194.00
             336.33,194.00 339.31,220.00 339.31,220.00
             340.32,224.01 343.55,226.08 345.95,230.00
             349.54,235.87 349.99,240.35 350.00,247.00
             350.00,247.00 350.00,283.00 350.00,283.00
             350.00,291.68 350.91,298.19 346.01,306.00
             341.35,313.42 323.57,321.85 314.96,323.87
             314.96,323.87 314.96,212.13 314.96,212.13
             314.96,212.13 321.00,214.00 321.00,214.00
             319.95,201.02 315.32,184.58 309.37,173.00
             303.59,161.74 274.18,115.27 215.82,114.00
             169.64,114.55 136.31,143.53 121.29,170.00
             114.28,182.37 109.15,199.82 108.00,214.00
             108.00,214.00 115.00,212.00 115.00,212.00
             115.00,212.00 115.00,324.00 115.00,324.00 Z
           M 370.00,127.00
           C 370.00,127.00 338.00,119.00 338.00,119.00
             338.00,119.00 349.00,140.00 349.00,140.00
             354.41,138.71 367.19,131.69 370.00,127.00 Z
           M 373.00,132.00
           C 366.38,133.34 357.99,139.41 352.00,143.00
             353.66,148.69 359.99,159.61 364.00,164.00
             364.00,164.00 373.00,132.00 373.00,132.00 Z
           M 155.00,172.52
           C 155.00,172.52 194.00,172.00 194.00,172.00
             194.00,172.00 267.00,172.00 267.00,172.00
             282.98,172.02 286.29,178.29 297.00,189.00
             307.43,199.43 312.98,202.49 313.00,218.00
             313.00,218.00 313.00,322.00 313.00,322.00
             312.98,337.98 306.71,341.29 296.00,352.00
             285.57,362.43 282.51,367.98 267.00,368.00
             267.00,368.00 163.00,368.00 163.00,368.00
             147.02,367.98 143.71,361.71 133.00,351.00
             122.57,340.57 117.02,337.51 117.00,322.00
             117.00,322.00 117.00,218.00 117.00,218.00
             117.03,201.62 124.06,197.94 135.00,187.00
             141.93,180.07 145.27,175.20 155.00,172.52 Z
           M 160.00,192.14
           C 155.17,194.33 153.61,196.41 150.00,200.00
             146.74,203.24 139.26,210.02 137.74,214.00
             136.68,216.76 137.00,223.76 137.00,227.00
             137.00,227.00 137.00,254.00 137.00,254.00
             137.00,254.00 137.00,318.00 137.00,318.00
             137.02,328.93 139.33,329.33 147.00,337.00
             154.97,344.97 155.60,347.98 167.00,348.00
             167.00,348.00 263.00,348.00 263.00,348.00
             274.40,347.98 275.03,344.97 283.00,337.00
             290.67,329.33 292.98,328.93 293.00,318.00
             293.00,318.00 293.00,222.00 293.00,222.00
             292.98,211.07 290.67,210.67 283.00,203.00
             275.03,195.03 274.40,192.02 263.00,192.14
             263.00,192.14 196.00,192.14 196.00,192.14
             196.00,192.14 160.00,192.14 160.00,192.14 Z
           M 181.00,228.46
           C 192.92,226.82 204.35,231.80 209.67,243.00
             212.99,249.97 215.81,262.95 205.00,264.77
             200.62,265.51 196.44,264.01 194.31,259.96
             192.66,256.82 192.77,247.91 185.00,248.25
             174.16,248.73 180.87,263.51 169.00,264.86
             157.63,266.16 156.65,255.22 159.22,247.00
             162.73,235.76 169.96,230.92 181.00,228.46 Z
           M 257.00,230.70
           C 268.86,228.15 272.12,238.95 268.83,244.83
             267.34,247.48 263.50,249.95 261.00,251.66
             257.29,254.18 244.31,263.20 241.00,264.30
             230.83,267.67 224.17,257.39 229.01,250.18
             230.72,247.63 235.39,244.55 238.00,242.72
             242.93,239.27 251.81,232.99 257.00,230.70 Z
           M 167.00,292.57
           C 167.00,292.57 198.00,292.00 198.00,292.00
             198.00,292.00 256.00,292.00 256.00,292.00
             260.25,292.01 265.26,291.86 268.77,294.70
             273.52,298.53 272.78,306.86 267.89,310.26
             265.00,312.27 261.34,311.99 258.00,312.00
             258.00,312.00 174.00,312.00 174.00,312.00
             170.52,311.99 166.18,312.24 163.21,310.15
             156.90,305.69 157.97,296.15 167.00,292.57 Z" />
</svg>
